<?xml version="1.0" encoding="utf-8"?>
<!-- Generator: Adobe Illustrator 27.5.0, SVG Export Plug-In . SVG Version: 6.00 Build 0)  -->
<svg version="1.1" id="Capa_1" xmlns="http://www.w3.org/2000/svg" xmlns:xlink="http://www.w3.org/1999/xlink" x="0px" y="0px"
	 viewBox="0 0 1218.897 1218.897" style="enable-background:new 0 0 1218.897 1218.897;" xml:space="preserve">
<path style="fill:#00A69D;" d="M224.761,43C124.192,43,42.665,124.525,42.665,225.096c0,100.572,81.527,182.094,182.096,182.094
	c100.571,0,182.1-81.522,182.1-182.094C406.861,124.525,325.332,43,224.761,43z"/>
<path style="fill:#00A69D;" d="M406.861,609.175c0,100.57-81.529,182.096-182.1,182.096c-100.569,0-182.096-81.526-182.096-182.096
	c0-100.569,81.527-182.098,182.096-182.098C325.332,427.077,406.861,508.606,406.861,609.175z"/>
<path style="fill:#C6421E;" d="M224.761,811.157c-100.569,0-182.096,81.527-182.096,182.099s81.527,182.099,182.096,182.099
	c100.571,0,182.1-81.527,182.1-182.099S325.332,811.157,224.761,811.157z"/>
<ellipse transform="matrix(0.0585 -0.9983 0.9983 0.0585 349.1899 820.4504)" style="fill:#C6421E;" cx="609.573" cy="225.095" rx="182.094" ry="182.097"/>
<ellipse transform="matrix(0.7071 -0.7071 0.7071 0.7071 -252.2117 609.4561)" style="fill:#E8AF2E;" cx="609.573" cy="609.174" rx="182.097" ry="182.097"/>
<circle style="fill:#E8AF2E;" cx="609.573" cy="993.255" r="182.098"/>
<ellipse transform="matrix(0.1108 -0.9938 0.9938 0.1108 660.4821 1188.4094)" style="fill:#E8AF2E;" cx="994.382" cy="225.095" rx="182.094" ry="182.096"/>
<ellipse transform="matrix(0.981 -0.1941 0.1941 0.981 -99.3146 204.5549)" style="fill:#C6421E;" cx="994.382" cy="609.174" rx="182.096" ry="182.097"/>
<ellipse style="fill:#00A69D;" cx="994.382" cy="993.255" rx="182.096" ry="182.099"/>
<g>
	<path style="fill:#D0D2D3;" d="M1069.411,612.962c5.752,0,10.424,4.679,10.424,10.426v29.595c0,5.74-4.672,10.418-10.424,10.418
		h-50.606v-50.438H1069.411 M1069.411,592.436h-71.137v91.495h71.137c17.094,0,30.955-13.854,30.955-30.948v-29.595
		C1100.366,606.294,1086.505,592.436,1069.411,592.436L1069.411,592.436z"/>
	<rect x="924.851" y="566.954" style="fill:#D0D2D3;" width="127.578" height="147.763"/>
	<rect x="924.851" y="566.954" style="fill:#F0F1F1;" width="91.127" height="147.763"/>
	<path style="fill:#F0F1F1;" d="M997.207,466.77c0,0-12.868,10.645-13.331,25.146c-0.469,14.485,8.582,16.386,13.157,23.622
		c4.577,7.241,2.847,19.818,2.847,19.818s11.047-10.29,10.285-22.863c-0.762-12.571-15.268-16.765-16.004-27.431
		C993.422,474.39,997.207,466.77,997.207,466.77z"/>
	<path style="fill:#F0F1F1;" d="M974.138,509.353c0,0-8.171,6.747-8.453,15.956c-0.297,9.19,5.438,10.397,8.343,14.992
		c2.905,4.597,1.812,12.579,1.812,12.579s7.013-6.531,6.521-14.513c-0.479-7.977-9.685-10.641-10.152-17.411
		C971.735,514.181,974.138,509.353,974.138,509.353z"/>
</g>
<g>
	<g>
		
			<rect x="488.854" y="538.551" transform="matrix(0.8587 -0.5124 0.5124 0.8587 -217.7732 386.6476)" style="fill:#8BC543;stroke:#006738;stroke-width:12.5438;stroke-miterlimit:10;" width="206.96" height="99.449"/>
		<path style="fill:#006738;" d="M626.622,567.815c11.298,18.937,5.111,43.447-13.825,54.748
			c-18.938,11.299-43.452,5.108-54.75-13.826c-11.3-18.935-5.109-43.446,13.83-54.749
			C590.811,542.69,615.32,548.879,626.622,567.815z"/>
		<path style="fill:#006738;" d="M477.992,598.603l13.543,22.698c12.536-7.48,16.637-23.708,9.152-36.242L477.992,598.603z"/>
		<g>
			<g>
				<path style="fill:#8BC543;" d="M594.063,574.783c-1.778-2.466-4.959-2.333-9.554,0.41c-4.606,2.749-6.177,5.351-4.713,7.809
					c0.898,1.503,2.288,2.149,4.176,1.941c1.893-0.209,5.336-1.213,10.333-3.035c4.999-1.818,9.15-2.348,12.454-1.585
					c3.308,0.759,5.925,2.752,7.854,5.984c2.248,3.767,2.3,7.683,0.152,11.745c-2.142,4.06-5.389,7.388-9.736,9.981
					c-10.506,6.269-18.893,5.821-25.159-1.352l8.274-5.891c3.161,3.837,7.528,4.091,13.095,0.77
					c5.219-3.114,6.773-6.438,4.662-9.974c-0.933-1.568-2.262-2.36-3.99-2.369c-1.719-0.011-5.195,0.921-10.414,2.8
					c-5.222,1.876-9.432,2.497-12.631,1.862c-3.191-0.642-5.625-2.353-7.29-5.149c-1.794-2.999-1.972-6.337-0.54-10.01
					c1.428-3.666,4.689-7.021,9.786-10.062c10.088-6.022,17.375-5.833,21.85,0.56L594.063,574.783z"/>
			</g>
			
				<rect x="574.607" y="561.104" transform="matrix(0.8587 -0.5125 0.5125 0.8587 -207.9293 376.8509)" style="fill:#8BC543;" width="9.645" height="8.776"/>
			
				<rect x="601.438" y="606.064" transform="matrix(0.8587 -0.5125 0.5125 0.8587 -227.1756 396.9394)" style="fill:#8BC543;" width="9.646" height="8.777"/>
		</g>
		<path style="fill:#006738;" d="M528.144,682.649l22.7-13.545c-7.481-12.538-23.707-16.635-36.245-9.152L528.144,682.649z"/>
		<path style="fill:#006738;" d="M705.868,576.593l-13.547-22.697c-12.535,7.478-16.631,23.705-9.149,36.242L705.868,576.593z"/>
		<path style="fill:#006738;" d="M655.713,492.549l-22.696,13.544c7.482,12.535,23.708,16.634,36.242,9.153L655.713,492.549z"/>
		<path style="fill:#006738;" d="M543.138,617.633c2.552,4.275,1.156,9.809-3.121,12.357c-4.271,2.55-9.804,1.156-12.355-3.119
			c-2.552-4.275-1.153-9.809,3.119-12.359C535.053,611.963,540.586,613.362,543.138,617.633z"/>
		<path style="fill:#006738;" d="M657.011,549.682c2.549,4.274,1.152,9.805-3.121,12.356c-4.271,2.551-9.807,1.153-12.358-3.118
			c-2.55-4.277-1.151-9.808,3.122-12.36C648.929,544.009,654.459,545.408,657.011,549.682z"/>
	</g>
	<g>
		<polygon style="fill:#8BC543;stroke:#006738;stroke-width:12.5438;stroke-miterlimit:10;" points="719.371,620.489 
			528.015,699.344 490.127,607.391 681.476,528.542 		"/>
		<path style="fill:#006738;" d="M641.663,598.731c8.4,20.387-1.313,43.727-21.701,52.129c-20.393,8.4-43.731-1.316-52.131-21.705
			c-8.404-20.388,1.314-43.727,21.704-52.128C609.927,568.627,633.261,578.342,641.663,598.731z"/>
		<path style="fill:#006738;" d="M490.127,607.391l10.069,24.441c13.497-5.563,19.93-21.013,14.369-34.509L490.127,607.391z"/>
		<g>
			<g>
				<path style="fill:#8BC543;" d="M608.432,600.846c-1.396-2.697-4.561-3.031-9.508-0.992c-4.959,2.044-6.896,4.387-5.803,7.031
					c0.664,1.619,1.944,2.465,3.843,2.537c1.901,0.07,5.457-0.422,10.664-1.49c5.215-1.066,9.396-0.979,12.552,0.259
					c3.157,1.236,5.456,3.593,6.893,7.072c1.669,4.055,1.146,7.938-1.571,11.64c-2.712,3.701-6.418,6.518-11.094,8.444
					c-11.313,4.661-19.541,2.987-24.692-5.027l9.05-4.613c2.567,4.26,6.849,5.153,12.845,2.684c5.613-2.314,7.639-5.377,6.072-9.182
					c-0.692-1.689-1.895-2.668-3.602-2.928c-1.698-0.266-5.273,0.15-10.714,1.242c-5.437,1.086-9.696,1.088-12.766-0.013
					c-3.063-1.1-5.219-3.151-6.46-6.159c-1.331-3.232-1.017-6.56,0.94-9.983c1.945-3.417,5.668-6.257,11.153-8.517
					c10.864-4.479,18.041-3.224,21.53,3.755L608.432,600.846z"/>
			</g>
			
				<rect x="590.5" y="585.126" transform="matrix(0.9246 -0.3809 0.3809 0.9246 -179.6795 271.2267)" style="fill:#8BC543;" width="9.646" height="8.774"/>
			
				<rect x="610.447" y="633.533" transform="matrix(0.9247 -0.3806 0.3806 0.9247 -196.484 282.1752)" style="fill:#8BC543;" width="9.648" height="8.776"/>
		</g>
		<path style="fill:#006738;" d="M527.413,697.884l24.441-10.071c-5.563-13.498-21.014-19.934-34.511-14.368L527.413,697.884z"/>
		<path style="fill:#006738;" d="M718.765,619.032l-10.068-24.442c-13.494,5.564-19.932,21.014-14.367,34.511L718.765,619.032z"/>
		<path style="fill:#006738;" d="M681.476,528.542l-24.438,10.07c5.563,13.497,21.013,19.929,34.512,14.365L681.476,528.542z"/>
		<path style="fill:#006738;" d="M551.776,635.77c1.896,4.604-0.296,9.87-4.899,11.766c-4.597,1.896-9.868-0.294-11.762-4.898
			c-1.897-4.6,0.296-9.873,4.897-11.768C544.616,628.973,549.88,631.169,551.776,635.77z"/>
		<path style="fill:#006738;" d="M674.382,585.247c1.895,4.603-0.297,9.869-4.897,11.765c-4.599,1.896-9.872-0.294-11.768-4.894
			c-1.897-4.604,0.301-9.875,4.902-11.773C667.219,578.453,672.485,580.645,674.382,585.247z"/>
	</g>
	<g>
		
			<rect x="510.158" y="593.956" transform="matrix(0.9718 -0.236 0.236 0.9718 -134.5601 162.9778)" style="fill:#8BC543;stroke:#006738;stroke-width:12.5438;stroke-miterlimit:10;" width="206.964" height="99.448"/>
		<path style="fill:#006738;" d="M652.443,634.258c5.201,21.43-7.952,43.02-29.38,48.227c-21.426,5.201-43.022-7.95-48.226-29.38
			c-5.2-21.429,7.951-43.019,29.382-48.223C625.648,599.679,647.236,612.831,652.443,634.258z"/>
		<path style="fill:#006738;" d="M501.348,619.779l6.235,25.686c14.189-3.445,22.897-17.737,19.45-31.923L501.348,619.779z"/>
		<g>
			<g>
				<path style="fill:#8BC543;" d="M619.273,631.301c-0.97-2.882-4.049-3.693-9.248-2.43c-5.211,1.264-7.48,3.289-6.807,6.068
					c0.414,1.699,1.55,2.734,3.417,3.09c1.866,0.359,5.455,0.414,10.766,0.148c5.313-0.259,9.433,0.459,12.366,2.167
					c2.934,1.702,4.849,4.38,5.735,8.034c1.033,4.264-0.074,8.023-3.324,11.266c-3.24,3.25-7.326,5.465-12.247,6.663
					c-11.888,2.886-19.767-0.018-23.64-8.724l9.646-3.184c1.888,4.601,5.987,6.133,12.286,4.606
					c5.907-1.437,8.371-4.152,7.398-8.157c-0.43-1.771-1.461-2.921-3.113-3.437c-1.64-0.521-5.236-0.656-10.777-0.4
					c-5.539,0.246-9.748-0.4-12.614-1.951c-2.86-1.559-4.679-3.914-5.447-7.073c-0.823-3.396-0.01-6.64,2.439-9.724
					c2.448-3.084,6.557-5.326,12.322-6.724c11.42-2.771,18.325-0.444,20.712,6.987L619.273,631.301z"/>
			</g>
			
				<rect x="603.217" y="613.716" transform="matrix(0.9719 -0.2356 0.2356 0.9719 -128.5073 160.6507)" style="fill:#8BC543;" width="9.644" height="8.777"/>
			
				<rect x="615.57" y="664.594" transform="matrix(0.9718 -0.2356 0.2356 0.9718 -140.1516 165.0018)" style="fill:#8BC543;" width="9.648" height="8.775"/>
		</g>
		<path style="fill:#006738;" d="M524.443,714.887l25.683-6.234c-3.445-14.19-17.735-22.896-31.922-19.449L524.443,714.887z"/>
		<path style="fill:#006738;" d="M725.558,666.052l-6.234-25.689c-14.185,3.445-22.893,17.738-19.451,31.926L725.558,666.052z"/>
		<path style="fill:#006738;" d="M702.464,570.942l-25.688,6.24c3.447,14.183,17.739,22.891,31.925,19.445L702.464,570.942z"/>
		<path style="fill:#006738;" d="M557.967,657.202c1.171,4.84-1.796,9.711-6.635,10.885c-4.829,1.174-9.707-1.792-10.878-6.631
			c-1.176-4.836,1.794-9.709,6.631-10.887C551.922,649.395,556.792,652.368,557.967,657.202z"/>
		<path style="fill:#006738;" d="M686.831,625.91c1.172,4.837-1.796,9.708-6.635,10.882c-4.833,1.178-9.708-1.789-10.887-6.629
			c-1.173-4.834,1.799-9.709,6.633-10.888C680.78,618.104,685.655,621.073,686.831,625.91z"/>
	</g>
</g>
<g>
	<g>
		<g>
			<polygon style="fill:#D0D2D3;" points="258.064,714.854 191.467,714.854 201.096,669.922 248.435,669.922 			"/>
			<polygon style="fill:#BBBDBF;" points="253.881,695.327 248.435,669.922 201.096,669.922 195.651,695.327 			"/>
			<path style="fill:#E6E6E7;" d="M272.015,720.03h-94.5c-5.015,0-5.785-6.635-5.785-6.635h106.07
				C277.799,713.395,277.029,720.03,272.015,720.03z"/>
		</g>
		<path style="fill:#221F1F;" d="M349.748,660.936c0,6.096-4.937,11.035-11.034,11.035H110.814c-6.095,0-11.034-4.939-11.034-11.035
			V528.518c0-6.096,4.939-11.037,11.034-11.037h227.899c6.097,0,11.034,4.941,11.034,11.037V660.936z"/>
		<path style="fill:#E6E6E7;" d="M99.781,657.95v21.715c0,6.092,4.939,11.031,11.034,11.031h227.899
			c6.097,0,11.034-4.939,11.034-11.031V657.95H99.781z"/>
		<rect x="107.847" y="527.904" style="fill:#F0F1F1;" width="233.838" height="120.147"/>
		<path style="fill:#929597;" d="M232.752,673.743c0,4.41-3.576,7.986-7.987,7.986c-4.409,0-7.984-3.576-7.984-7.986
			c0-4.411,3.575-7.986,7.984-7.986C229.176,665.756,232.752,669.332,232.752,673.743z"/>
	</g>
	<g>
		<rect x="138.951" y="533.607" style="fill:#914E93;" width="50.931" height="11.196"/>
		<rect x="199.3" y="533.607" style="fill:#BBBDBF;" width="111.279" height="11.196"/>
		<rect x="138.951" y="549.91" style="fill:#29A9E0;" width="171.628" height="30.846"/>
		<rect x="138.951" y="586.967" style="fill:#F69322;" width="50.931" height="31.21"/>
		<rect x="199.3" y="586.967" style="fill:#D34040;" width="50.931" height="31.21"/>
		<rect x="259.651" y="586.967" style="fill:#8BC543;" width="50.928" height="31.21"/>
		<g>
			<rect x="138.951" y="622.928" style="fill:#929597;" width="50.931" height="4.439"/>
			<rect x="138.951" y="630.771" style="fill:#BBBDBF;" width="50.931" height="4.437"/>
			<rect x="138.951" y="638.614" style="fill:#BBBDBF;" width="50.931" height="4.432"/>
		</g>
		<g>
			<rect x="199.3" y="622.928" style="fill:#929597;" width="50.931" height="4.439"/>
			<rect x="199.3" y="630.771" style="fill:#BBBDBF;" width="50.931" height="4.437"/>
			<rect x="199.3" y="638.614" style="fill:#BBBDBF;" width="50.931" height="4.432"/>
		</g>
		<g>
			<rect x="259.651" y="622.928" style="fill:#929597;" width="50.928" height="4.439"/>
			<rect x="259.651" y="630.771" style="fill:#BBBDBF;" width="50.928" height="4.437"/>
			<rect x="259.651" y="638.614" style="fill:#BBBDBF;" width="50.928" height="4.432"/>
		</g>
	</g>
</g>
<g>
	<path style="fill:#221F1F;" d="M670.464,889.557h-108.58c-7.418,0-13.429,7.444-13.429,12.577v54.356
		c0,5.135,6.011,9.291,13.429,9.291h108.58c7.417,0,13.43-4.156,13.43-9.291v-54.356
		C683.893,897.002,677.881,889.557,670.464,889.557z M670.276,947.316c0,5.129-6.012,9.292-13.426,9.292h-81.353
		c-7.41,0-13.425-4.163-13.425-9.292v-36.015c0-5.127,6.015-9.285,13.425-9.285h81.353c7.414,0,13.426,4.158,13.426,9.285V947.316z"
		/>
	<g>
		<rect x="491.096" y="932.447" style="fill:#221F1F;" width="243.632" height="152.995"/>
		<polygon style="fill:#403F41;" points="486.316,930.949 486.316,986.59 612.909,998.978 739.503,987.583 739.503,930.949 		"/>
		<rect x="603.274" y="985.019" style="fill:#D0D2D3;" width="25.795" height="27.921"/>
		<g>
			<path style="fill:#221F1F;" d="M621.109,995.815c0,2.726-2.208,4.932-4.933,4.932c-2.727,0-4.935-2.206-4.935-4.932
				c0-2.724,2.209-4.936,4.935-4.936C618.901,990.879,621.109,993.091,621.109,995.815z"/>
			<rect x="613.819" y="996.331" style="fill:#221F1F;" width="4.828" height="9.553"/>
		</g>
	</g>
</g>
<g>
	<g>
		<path style="fill:#F69D5E;" d="M282.663,893.318l-13.082,17.142c-3.372,4.318-19.237,11.789-12.424,18.296
			c8.285,7.907,18.418,8.247,21.624,4.777l22.915-25.374c3.45-4.179,8.291-12.121,1.098-18.98
			C294.506,881.278,285.854,889.842,282.663,893.318z"/>
		<path style="fill:#F69D5E;" d="M155.706,952.103c-0.492,27.511-2.746,88.188-2.746,88.188s-0.988,12.491,3.956,18.114
			c4.947,5.625,12.362,8.1,12.362,8.1l-12.38,25.717l74.69,15.803l37.097-52.896l-96.658-90.343
			C172.027,964.785,174.701,950.69,155.706,952.103z"/>
		<g>
			<path style="fill:#221F1F;" d="M268.531,874.841h-86.218c-5.841,0-10.58,4.739-10.58,10.584v164.865
				c0,5.847,4.739,10.582,10.58,10.582h86.218c5.849,0,10.584-4.735,10.584-10.582V885.425
				C279.115,879.581,274.38,874.841,268.531,874.841z"/>
			<rect x="178.346" y="898.227" style="fill:#D0D2D3;" width="94.157" height="136.553"/>
			<path style="fill:#403F41;" d="M225.423,883.828c-2.18,0-3.952,1.772-3.952,3.951c0,2.184,1.772,3.956,3.952,3.956
				c2.184,0,3.955-1.773,3.955-3.956C229.378,885.6,227.607,883.828,225.423,883.828z"/>
			<path style="fill:#403F41;" d="M232.268,1043.602h-13.692c-2.401,0-4.349,1.951-4.349,4.359c0,2.403,1.948,4.352,4.349,4.352
				h13.692c2.403,0,4.353-1.948,4.353-4.352C236.621,1045.553,234.671,1043.602,232.268,1043.602z"/>
		</g>
		<path style="fill:#F69D5E;" d="M273.757,1008.764l-4.18,5.273c-3.37,4.316-7.365,11.787-0.551,18.299
			c8.285,7.906,16.935-0.658,20.134-4.127l3.629-4.603c3.449-4.176,8.293-12.118,1.096-18.981
			C285.604,996.723,276.952,1005.29,273.757,1008.764z"/>
		<path style="fill:#F69D5E;" d="M273.757,974.827l-4.176,5.275c-3.374,4.314-7.369,11.785-0.554,18.297
			c8.285,7.906,16.935-0.656,20.136-4.128l3.629-4.601c3.449-4.182,8.291-12.12,1.098-18.982
			C285.604,962.79,276.954,971.358,273.757,974.827z"/>
		<path style="fill:#F69D5E;" d="M273.757,940.624l-4.176,5.271c-3.372,4.317-7.369,11.792-0.55,18.299
			c8.285,7.902,16.931-0.658,20.132-4.128l3.635-4.601c3.443-4.179,8.285-12.12,1.092-18.982
			C285.606,928.583,276.954,937.148,273.757,940.624z"/>
		
			<rect x="183.378" y="1053.754" transform="matrix(0.4699 -0.8827 0.8827 0.4699 -866.6215 754.3681)" style="fill:#E6E6E7;" width="22.724" height="89.874"/>
		
			<rect x="163.59" y="1065.761" transform="matrix(0.4699 -0.8827 0.8827 0.4699 -867.7637 731.2656)" style="fill:#FFFFFF;" width="22.724" height="44.702"/>
		<path style="fill:#221F1F;" d="M147.879,1081.674l-30.492,58.623c26.399,19.309,58.185,31.656,92.687,34.412l24.403-46.913
			L147.879,1081.674z"/>
		<path style="fill:#F0F1F1;" d="M216.561,1133.381c-2.249-0.594-4.555,0.746-5.153,3.004c-0.588,2.247,0.751,4.557,3.005,5.148
			c2.251,0.594,4.555-0.746,5.151-3.002C220.154,1136.281,218.815,1133.977,216.561,1133.381z"/>
		<path style="fill:#F0F1F1;" d="M209.773,1146.125c-2.252-0.595-4.558,0.747-5.152,3.001c-0.594,2.247,0.75,4.558,3,5.155
			c2.251,0.59,4.559-0.752,5.155-3.002C213.369,1149.022,212.025,1146.715,209.773,1146.125z"/>
		<path style="fill:#403F41;" d="M147.879,1081.674l-30.492,58.623c13.154,9.621,27.641,17.52,43.138,23.364l30.647-58.919
			L147.879,1081.674z"/>
	</g>
</g>
<g>
	<g>
		<g>
			<path style="fill:#221F1F;" d="M1113.52,906.475H876.51c-6.499,0-11.768,5.271-11.768,11.774v141.241
				c0,6.503,5.269,11.773,11.768,11.773h237.01c6.505,0,11.771-5.271,11.771-11.773V918.25
				C1125.291,911.747,1120.024,906.475,1113.52,906.475z"/>
			<rect x="882.906" y="922.201" style="fill:#E6E6E7;" width="224.218" height="133.343"/>
			<path style="fill:#403F41;" d="M995.014,911.003c-1.926,0-3.489,1.566-3.489,3.492c0,1.928,1.563,3.49,3.489,3.49
				c1.932,0,3.493-1.563,3.493-3.49C998.507,912.569,996.945,911.003,995.014,911.003z"/>
		</g>
	</g>
	<g>
		<g>
			<path style="fill:#F69D5E;" d="M982.874,944.395c-1.699-4.615-5.887-12.576-14.388-9.541c-6.755,2.406-4.299,12.529-3.031,16.629
				l36.687,99.726c1.848,4.623,2.945,12.243,11.17,9.87c9.996-2.881,7.233-13.592,5.976-17.688L982.874,944.395z"/>
			<path style="fill:#F69D5E;" d="M1022.48,990.629c-1.702-4.621-5.717-12.051-14.396-9.548c-9.992,2.888-7.232,13.596-5.965,17.692
				l19.68,52.67c1.844,4.621,5.879,11.174,14.105,8.805c9.994-2.881,7.235-13.59,5.978-17.691L1022.48,990.629z"/>
			<path style="fill:#F69D5E;" d="M1042.351,988.532c-1.699-4.617-5.717-12.049-14.391-9.544
				c-9.994,2.888-7.233,13.598-5.965,17.696l19.678,52.662c1.846,4.626,5.879,11.181,14.103,8.805
				c9.998-2.875,7.234-13.587,5.979-17.685L1042.351,988.532z"/>
			<path style="fill:#F69D5E;" d="M1061.517,989.239c-1.703-4.615-5.719-12.049-14.393-9.545c-9.994,2.888-7.23,13.598-5.965,17.693
				l14.799,39.162c1.846,4.625,5.881,11.184,14.105,8.809c9.996-2.88,7.233-13.588,5.973-17.686L1061.517,989.239z"/>
			<path style="fill:#F69D5E;" d="M1081.669,1043.254c-2.785-7.707-8.766-23.644-8.766-23.644l-65.141,23.284
				c0,0-23.949-18.385-33.478-18.425c-9.53-0.033-19.778,4.474-18.136,6.657c1.637,2.186,42.321,30.767,42.321,30.767
				s4.425,5.112,10.56,10.16c6.131,5.043,14.533,7.094,14.533,7.094l7.315,20.252l53.479-19.328l-6.506-17.998
				C1077.853,1062.073,1084.452,1050.957,1081.669,1043.254z"/>
		</g>
		<g>
			
				<rect x="1021.257" y="1075.75" transform="matrix(0.9406 -0.3396 0.3396 0.9406 -305.6169 423.6563)" style="fill:#D0D2D3;" width="72.465" height="18.323"/>
			
				<rect x="1022.44" y="1081.862" transform="matrix(0.9406 -0.3394 0.3394 0.9406 -308.5486 417.9246)" style="fill:#F0F1F1;" width="36.04" height="18.317"/>
			<path style="fill:#221F1F;" d="M1096.383,1076.887l-74.415,26.836l22.897,64.483c26.352-7.591,50.244-20.95,70.217-38.653
				L1096.383,1076.887z"/>
			<path style="fill:#F0F1F1;" d="M1090.03,1090.624c-1.57,1.021-2.014,3.129-0.988,4.705c1.025,1.571,3.133,2.018,4.703,0.992
				c1.574-1.028,2.018-3.135,0.992-4.708C1093.713,1090.043,1091.609,1089.595,1090.03,1090.624z"/>
			<path style="fill:#F0F1F1;" d="M1093.981,1101.575c-1.572,1.03-2.018,3.13-0.99,4.703c1.021,1.572,3.129,2.019,4.703,0.994
				c1.572-1.025,2.016-3.133,0.994-4.703C1097.658,1100.993,1095.555,1100.549,1093.981,1101.575z"/>
			<path style="fill:#F0F1F1;" d="M1097.934,1112.521c-1.576,1.034-2.025,3.136-0.996,4.712c1.025,1.568,3.127,2.013,4.705,0.987
				c1.568-1.021,2.016-3.132,0.99-4.703C1101.605,1111.948,1099.498,1111.501,1097.934,1112.521z"/>
			<path style="fill:#403F41;" d="M1059.18,1090.315l-37.212,13.408l22.9,64.483c12.846-3.699,25.125-8.736,36.635-15.019
				L1059.18,1090.315z"/>
		</g>
	</g>
</g>
<g>
	<path style="fill:#EA934B;" d="M276.624,177.795c-3.811,0.118-30.046-1.499-39.517-1.151
		c-13.178,0.487-43.508,28.828-47.309,30.859c-3.808,2.034-4.609,7.369-2.554,10.847c2.06,3.484,11.876,0.93,11.876,0.93
		l10.602,9.586l-38.293,37.78l60.265,41.216l32.77-24.231c0,0,51.163-42.392,52.244-51.241c0.418-3.448,11.128,1.142,11.96-7.422
		c0.898-9.25-18.98-28.529-19.072-56.632C309.596,168.336,289.269,177.399,276.624,177.795z"/>
	<g>
		<path style="fill:#FCD9B9;" d="M222.39,188.316c0,0-13.419-9.408-31.562-10.829c-11.91-0.93-48.661-8.885-48.661-8.885
			s-14.335,8.904-14.963,33.244c-0.202,7.9-16.953,24.628-4.387,28.294c16.839,4.923,31.898,36.109,48.39,44.959
			c13.357,7.171,42.086,14.91,42.086,14.91l46.691-49.429l-49.358-31.169L222.39,188.316z"/>
		<path style="fill:#FCD9B9;" d="M289.443,253.024l-74.042-46.958c-3.113-1.82-7.384,2.7-9.202,5.81l-2.711,4.634
			c-1.816,3.107-0.77,7.105,2.341,8.924l74.31,43.482c3.114,1.821,11.182,5.829,15.671-1.55
			C300.355,259.896,292.551,254.845,289.443,253.024z"/>
		<path style="fill:#FCD9B9;" d="M277.899,270.585l-74.315-44.493c-3.109-1.817-7.106-0.771-8.926,2.339l-2.712,4.634
			c-1.815,3.107-0.768,7.104,2.338,8.924l74.316,43.481c3.112,1.823,11.18,5.829,15.667-1.549
			C288.811,276.453,281.014,272.402,277.899,270.585z"/>
		<path style="fill:#FCD9B9;" d="M261.91,284.46l-74.314-44.485c-3.109-1.82-7.109-0.775-8.928,2.333l-2.711,4.634
			c-1.818,3.109-0.77,7.105,2.339,8.928l74.314,43.481c3.116,1.818,11.18,5.827,15.669-1.549
			C272.824,290.332,265.022,286.281,261.91,284.46z"/>
		<path style="fill:#FCD9B9;" d="M243.696,296.998l-67.64-40.467c-3.111-1.825-7.108-0.776-8.928,2.333l-2.711,4.632
			c-1.816,3.109,3.679,9.787,6.789,11.602l63.188,36.789c3.113,1.82,11.182,5.832,15.669-1.548
			C254.608,302.868,246.805,298.821,243.696,296.998z"/>
	</g>
	<path style="fill:#EA934B;" d="M232.07,182.902c-2.18-2.867-6.363-2.268-9.232-0.088l-40.886,32.85
		c-2.873,2.182-9.66,8.105-4.555,15.071c5.167,7.05,16.293,2.049,19.165-0.134l36.418-20.384c2.871-2.179,4.52-20.169,2.337-23.04
		L232.07,182.902z"/>
	<g>
		
			<rect x="307.329" y="157.321" transform="matrix(0.9646 -0.2636 0.2636 0.9646 -41.6388 91.0129)" style="fill:#D0D2D3;" width="21.909" height="86.653"/>
		
			<rect x="301.588" y="158.242" transform="matrix(0.9646 -0.2637 0.2637 0.9646 -36.3445 88.767)" style="fill:#F0F1F1;" width="21.911" height="43.098"/>
		<path style="fill:#221F1F;" d="M337.204,244.206l69.655-19.037c0-0.025,0.002-0.05,0.002-0.074
			c0-33.276-8.967-64.439-24.558-91.281l-70.061,19.147L337.204,244.206z"/>
		<path style="fill:#F0F1F1;" d="M350.186,224.335c-2.246,0.082-4.003,1.964-3.923,4.207c0.082,2.247,1.965,3.999,4.211,3.921
			c2.242-0.081,3.997-1.967,3.919-4.207C354.311,226.012,352.425,224.259,350.186,224.335z"/>
		<path style="fill:#F0F1F1;" d="M363.611,220.663c-2.246,0.083-3.999,1.962-3.921,4.207c0.084,2.245,1.968,3.998,4.21,3.921
			c2.244-0.083,3.999-1.966,3.917-4.21C367.739,222.335,365.853,220.583,363.611,220.663z"/>
		<path style="fill:#F0F1F1;" d="M377.037,216.988c-2.241,0.078-3.995,1.962-3.917,4.208c0.084,2.243,1.965,3.997,4.209,3.915
			c2.244-0.081,3.996-1.965,3.915-4.208C381.166,218.662,379.278,216.907,377.037,216.988z"/>
		<path style="fill:#403F41;" d="M324.73,198.576l75.9-20.74c-4.182-15.605-10.398-30.368-18.327-44.02l-70.061,19.147
			L324.73,198.576z"/>
	</g>
	<g>
		
			<rect x="86.978" y="189.693" transform="matrix(0.2636 -0.9646 0.9646 0.2636 -97.5955 273.4509)" style="fill:#221F1F;" width="86.653" height="21.91"/>
		
			<rect x="114.496" y="168.835" transform="matrix(0.2638 -0.9646 0.9646 0.2638 -73.2624 263.5974)" style="fill:#403F41;" width="43.097" height="21.911"/>
		<path style="fill:#A5701C;" d="M136.34,152.962L67.153,133.93c-15.545,26.817-24.488,57.939-24.488,91.166
			c0,0.069,0.004,0.139,0.004,0.207l68.717,18.903L136.34,152.962z"/>
		<path style="fill:#221F1F;" d="M98.405,224.335c-2.242-0.076-4.125,1.677-4.207,3.921c-0.08,2.241,1.674,4.126,3.915,4.207
			c2.246,0.078,4.131-1.675,4.209-3.921C102.402,226.299,100.649,224.417,98.405,224.335z"/>
		<path style="fill:#221F1F;" d="M84.975,220.663c-2.24-0.079-4.123,1.672-4.207,3.918c-0.076,2.245,1.68,4.127,3.92,4.21
			c2.246,0.076,4.127-1.677,4.207-3.921C88.975,222.625,87.221,220.746,84.975,220.663z"/>
		<path style="fill:#221F1F;" d="M71.554,216.988c-2.248-0.081-4.131,1.674-4.211,3.916c-0.08,2.243,1.673,4.127,3.915,4.208
			c2.246,0.081,4.129-1.673,4.211-3.915C75.549,218.951,73.793,217.066,71.554,216.988z"/>
		<path style="fill:#C38728;" d="M136.34,152.962L67.241,133.78c-7.927,13.645-14.14,28.399-18.329,43.993l74.948,20.803
			L136.34,152.962z"/>
	</g>
	<path style="fill:#EA934B;" d="M237.107,280.826c-6.919-5.345-12.815,1.839-14.971,4.731l-8.564,13.623
		c-2.224,3.545-4.669,9.536,1.022,13.941c6.913,5.353,12.811-1.828,14.967-4.717l8.206-13.072
		C240.054,291.889,243.108,285.475,237.107,280.826z"/>
	<path style="fill:#EA934B;" d="M215.993,272.698c-6.915-5.349-12.815,1.839-14.967,4.726l-8.564,13.629
		c-2.224,3.545-4.671,9.532,1.018,13.941c6.917,5.355,12.816-1.832,14.967-4.72l8.204-13.069
		C218.944,283.758,221.996,277.348,215.993,272.698z"/>
	<path style="fill:#EA934B;" d="M196.247,263.02c-6.913-5.349-12.81,1.838-14.965,4.725l-7.402,11.304
		c-2.224,3.545-4.671,9.535,1.02,13.941c6.913,5.355,12.811-1.83,14.969-4.717l7.043-10.75
		C199.196,274.08,202.253,267.665,196.247,263.02z"/>
	<path style="fill:#EA934B;" d="M171.979,255.398c-6.916-5.352-12.814,1.839-14.967,4.724l-2.757,4.336
		c-2.224,3.548-4.671,9.535,1.016,13.944c6.917,5.351,12.812-1.832,14.971-4.722l2.396-3.778
		C174.929,266.454,177.98,260.046,171.979,255.398z"/>
</g>
<g>
	<rect x="871.116" y="313.442" style="fill:#F0F1F1;" width="246.526" height="8.442"/>
	<rect x="880.801" y="214.741" style="fill:#C6421E;" width="39.325" height="87.476"/>
	<rect x="900.466" y="214.741" style="fill:#AA3115;" width="19.66" height="87.476"/>
	<rect x="942.767" y="182.145" style="fill:#C6421E;" width="39.327" height="120.071"/>
	<rect x="962.43" y="182.145" style="fill:#AA3115;" width="19.664" height="120.071"/>
	<rect x="1004.735" y="193.96" style="fill:#C6421E;" width="39.329" height="108.256"/>
	<rect x="1024.399" y="193.96" style="fill:#AA3115;" width="19.665" height="108.256"/>
	<rect x="1066.702" y="152.337" style="fill:#C6421E;" width="39.328" height="149.879"/>
	<rect x="1086.366" y="152.337" style="fill:#AA3115;" width="19.664" height="149.879"/>
	<polyline style="fill:none;stroke:#F0F1F1;stroke-width:8.6395;stroke-linecap:round;stroke-miterlimit:10;" points="
		1086.364,113.979 1024.399,165.026 962.43,152.003 899.226,189.226 	"/>
	<polyline style="fill:none;stroke:#F0F1F1;stroke-width:8.6395;stroke-linecap:round;stroke-miterlimit:10;" points="
		1070.048,111.212 1091.697,110.153 1083.575,132.624 	"/>
</g>
<g>
	<path style="fill:#F9CA35;" d="M689.316,175.748c-1.607-42.911-36.883-77.216-80.187-77.216c-44.33,0-80.265,35.939-80.265,80.269
		c8.799,50.072,32.986,56.204,46.18,108.546c28.643,19.066,26.443,14.663,72.572,3.757c6.593-48.174,41.776-77.231,41.776-112.303
		C689.437,177.756,689.394,176.744,689.316,175.748z"/>
	<g>
		<path style="fill:#E8AF2E;" d="M689.393,178.801c0.044-1.045,0.002-2.058-0.076-3.053c-1.577-42.122-35.604-75.928-77.817-77.158
			v201.215c7.931-1.322,18.492-4.532,36.117-8.701C654.209,242.93,689.393,213.874,689.393,178.801z"/>
	</g>
	<path style="fill:#A6A8AB;" d="M583.748,311.569v24.768c0,7.615,4.94,13.792,11.038,13.792h33.115
		c6.088,0,11.029-6.177,11.029-13.792v-24.768H583.748z"/>
	<g>
		<path style="fill:#D0D2D3;" d="M583.748,311.569v24.768c0,7.615,4.94,13.792,11.038,13.792h16.359v-38.56H583.748z"/>
		<path style="fill:#A6A8AB;" d="M638.931,336.338v-24.768h-27.785v38.56h16.756C633.989,350.129,638.931,343.953,638.931,336.338z"
			/>
	</g>
	<g>
		<path style="fill:none;stroke:#403F41;stroke-width:4.398;stroke-linecap:round;stroke-miterlimit:10;" d="M572.854,194.052
			c0,0,15.209,34.928,19.806,47.884c4.601,12.955,4.731,43.893,4.731,43.893"/>
		<path style="fill:none;stroke:#403F41;stroke-width:4.398;stroke-linecap:round;stroke-miterlimit:10;" d="M650.95,194.052
			c0,0-15.209,34.928-19.807,47.884c-4.596,12.955-4.729,43.893-4.729,43.893"/>
	</g>
	<path style="fill:#221F1F;" d="M569.997,281.186v40.161c0,7.62,6.177,13.792,13.786,13.792h55.111
		c7.611,0,13.787-6.172,13.787-13.792v-40.161H569.997z"/>
	<g>
		<path style="fill:none;stroke:#403F41;stroke-width:3.6689;stroke-linecap:round;stroke-miterlimit:10;" d="M595.886,206.813
			c0,5.804-3.589,10.509-8.007,10.509c-4.423,0-8.006-4.705-8.006-10.509c0-5.796,3.583-10.502,8.006-10.502
			C592.297,196.311,595.886,201.017,595.886,206.813z"/>
		<path style="fill:none;stroke:#403F41;stroke-width:3.6689;stroke-linecap:round;stroke-miterlimit:10;" d="M611.901,206.813
			c0,5.804-3.583,10.509-8.011,10.509c-4.419,0-8.004-4.705-8.004-10.509c0-5.796,3.585-10.502,8.004-10.502
			C608.318,196.311,611.901,201.017,611.901,206.813z"/>
		<path style="fill:none;stroke:#403F41;stroke-width:3.6689;stroke-linecap:round;stroke-miterlimit:10;" d="M627.918,206.813
			c0,5.804-3.583,10.509-8.009,10.509c-4.423,0-8.008-4.705-8.008-10.509c0-5.796,3.585-10.502,8.008-10.502
			C624.335,196.311,627.918,201.017,627.918,206.813z"/>
		<path style="fill:none;stroke:#403F41;stroke-width:3.6689;stroke-linecap:round;stroke-miterlimit:10;" d="M643.931,206.813
			c0,5.804-3.581,10.509-8.006,10.509c-4.422,0-8.007-4.705-8.007-10.509c0-5.796,3.585-10.502,8.007-10.502
			C640.35,196.311,643.931,201.017,643.931,206.813z"/>
	</g>
	<path style="fill:#403F41;" d="M655.481,293.291c0,1.097-0.846,1.984-1.887,1.984h-84.904c-1.04,0-1.881-0.888-1.881-1.984v-3.443
		c0-1.095,0.842-1.984,1.881-1.984h84.904c1.041,0,1.887,0.889,1.887,1.984V293.291z"/>
	<path style="fill:#403F41;" d="M655.481,305.146c0,1.093-0.846,1.984-1.887,1.984h-84.904c-1.04,0-1.881-0.891-1.881-1.984v-3.446
		c0-1.093,0.842-1.983,1.881-1.983h84.904c1.041,0,1.887,0.891,1.887,1.983V305.146z"/>
	<path style="fill:#403F41;" d="M655.675,316.998c0,1.098-0.844,1.983-1.886,1.983h-84.902c-1.039,0-1.886-0.886-1.886-1.983v-3.445
		c0-1.095,0.847-1.983,1.886-1.983h84.902c1.042,0,1.886,0.888,1.886,1.983V316.998z"/>
</g>
</svg>
